<svg xmlns="http://www.w3.org/2000/svg" viewBox="0 0 64 64" width="64" height="64"><path fill="#fff" d="M31.988 62.545c-8.159 0-15.829-3.178-21.599-8.947S1.442 40.159 1.442 32s3.178-15.829 8.947-21.598 13.439-8.947 21.599-8.947 15.829 3.178 21.599 8.947S62.532 23.841 62.532 32s-3.178 15.829-8.947 21.599-13.44 8.946-21.599 8.946"/><path fill="none" stroke="#858585" stroke-dasharray=".407,.8139" stroke-linecap="round" stroke-linejoin="round" stroke-miterlimit="7.976" stroke-width=".428" d="M31.987 31.892h30.545m-30.545 0 21.599-21.598M31.987 31.892V1.347m0 30.545L10.389 10.294m21.598 21.598H1.442m30.545 0L10.389 53.491m21.598-21.599v30.545m0-30.545 21.599 21.599" opacity=".9"/><g fill="none" stroke="#818181" stroke-dasharray=".407,.8139" stroke-linecap="square" stroke-linejoin="round" stroke-miterlimit="199.409" stroke-width=".856"><path d="m35.382 31.892-.101-.822-.296-.771-.474-.677-.625-.542-.737-.376-.805-.186-.827.015-.799.214-.724.401-.605.564-.45.694-.27.782-.072.825.13.817.323.761.497.66.643.52.75.349.811.158.827-.043.791-.242.709-.426.585-.585.425-.709.242-.791.052-.591h0" opacity=".9"/><path d="m42.169 31.892-.099-1.417-.295-1.389-.486-1.335-.666-1.254-.835-1.149-.987-1.022-1.119-.875-1.23-.71-1.317-.532-1.379-.344-1.413-.148-1.42.05-1.399.247-1.351.439-1.277.623-1.178.794-1.056.951-.913 1.089-.753 1.204-.578 1.298-.391 1.365-.198 1.407v1.421l.198 1.407.391 1.365.578 1.298.753 1.204.913 1.089 1.056.951 1.178.794 1.277.623 1.351.439 1.399.247 1.42.05 1.412-.149 1.379-.344 1.317-.532 1.23-.71 1.119-.875.987-1.022.835-1.149.666-1.255.486-1.334.295-1.389.099-1.415h0" opacity=".9"/><path d="m48.957 31.892-.092-1.774-.278-1.754-.46-1.715-.636-1.659-.806-1.583-.968-1.489-1.118-1.381-1.256-1.256-1.381-1.118-1.49-.968-1.583-.806-1.659-.636-1.715-.46-1.755-.278-1.774-.092-1.774.092-1.754.278-1.715.46-1.659.636-1.583.806-1.49.968-1.381 1.118-1.256 1.256-1.118 1.381-.968 1.489-.806 1.583-.636 1.659-.46 1.715-.278 1.754-.092 1.774.092 1.774.278 1.754.46 1.715.636 1.659.806 1.583.968 1.489 1.118 1.381 1.256 1.256 1.381 1.118 1.49.968 1.583.807 1.659.636 1.715.46 1.755.278 1.774.092 1.774-.092 1.754-.278 1.715-.46 1.659-.636 1.583-.807 1.49-.968 1.381-1.118 1.256-1.256 1.118-1.381.968-1.489.806-1.583.636-1.659.46-1.715.278-1.754.092-1.774h0" opacity=".9"/><path d="m55.745 31.892-.13-2.483-.39-2.455-.643-2.402-.891-2.321-1.129-2.216-1.355-2.086-1.565-1.933-1.758-1.758-1.933-1.565-2.086-1.355-2.215-1.128-2.321-.89-2.402-.643-2.456-.39-2.483-.13-2.483.13-2.455.39-2.402.643-2.321.89-2.216 1.129-2.085 1.355-1.933 1.565-1.758 1.758-1.565 1.933-1.354 2.085-1.129 2.216-.891 2.321-.643 2.402-.389 2.455-.131 2.483.13 2.483.39 2.455.643 2.402.891 2.321 1.129 2.216 1.355 2.086 1.565 1.933 1.758 1.758 1.933 1.565 2.086 1.355 2.216 1.129 2.321.89 2.402.644 2.455.389 2.483.13 2.483-.13 2.456-.389 2.402-.644 2.321-.89 2.216-1.129 2.085-1.355 1.933-1.565 1.758-1.758 1.565-1.933 1.355-2.085 1.128-2.216.891-2.321.643-2.402.389-2.455.131-2.483h0" opacity=".9"/></g><path fill="#11557c" d="M32 63c-8.28 0-16.065-3.224-21.92-9.079S1 40.281 1 32s3.224-16.065 9.079-21.921S23.72 1 32 1s16.066 3.224 21.921 9.079S63 23.72 63 32s-3.224 16.066-9.079 21.921S40.281 63 32 63m0-61.09c-8.037 0-15.594 3.13-21.276 8.813C5.04 16.407 1.91 23.962 1.91 32s3.13 15.594 8.813 21.277S23.962 62.09 32 62.09s15.594-3.13 21.277-8.813S62.09 40.038 62.09 32s-3.13-15.594-8.813-21.277S40.038 1.91 32 1.91"/><path fill="#004cff" d="m31.988 31.892.065-.021.065-.021.065-.021.065-.021.065-.021.065-.021.065-.021.065-.021.065-.021.065-.021.065-.021.065-.021.065-.021.065-.021.065-.021.065-.021.065-.021.065-.021.065-.021.065-.021.065-.021.065-.021.065-.021.065-.021.065-.021.065-.021.065-.021.065-.021.065-.021.065-.021.065-.021.065-.021.065-.021.065-.021.065-.021.065-.021.065-.021.065-.021.065-.021.065-.021.065-.021.065-.021.065-.021.065-.021.065-.021.065-.021.065-.021.065-.021.065-.021.065-.021.065-.021.065-.021.065-.021.065-.021.065-.021.065-.021.065-.021.065-.021.065-.021.065-.021.065-.021.065-.021.065-.021.065-.021.065-.021.065-.021.065-.021.065-.021.065-.021.065-.021.065-.021.065-.021.065-.021.065-.021.065-.021.065-.021.065-.021.065-.021.065-.021.065-.021.065-.021.065-.021.065-.021.065-.021.065-.021.065-.021.065-.021.065-.021.065-.021.065-.021.065-.021.065-.021.065-.021.065-.021.065-.021.065-.021.065-.021.065-.021.065-.021.065-.021.013.023.006.021.006.021.006.021.006.021.006.021.006.021.006.021.005.019.006.021.006.021.006.021.006.021.005.021.005.021.005.021.005.021.005.021.005.021.005.021.005.021.005.021.005.021.005.021.005.021.005.021.005.021.005.021.004.021.004.021.004.021.004.021.004.021.004.021.004.021.004.021.004.021.004.021.004.021.004.021.004.021.004.021.004.021.004.021.004.021.004.021.004.021.004.021.004.021.004.021.004.021.004.021.003.021.003.021.003.021.003.021.003.021.003.021.003.021.003.021.003.021.003.021.003.021.003.021.003.021.003.021.003.021.002.021.002.021.002.021.002.021.002.021.002.021.002.021.002.021.002.021.002.021.002.021.002.021.002.021.002.021.002.021.001.021.001.021.001.021.001.021.001.021.001.021.001.021.001.021.001.021.001.021.001.021.001.021.001.021.001.021v.086h-6.777z" opacity=".6"/><path fill="#ceff29" d="m31.988 31.892.071-.191.071-.191.071-.191.071-.191.071-.191.071-.191.071-.191.071-.191.071-.191.071-.191.071-.191.071-.191.071-.191.071-.191.071-.191.071-.191.071-.191.071-.191.071-.191.071-.191.071-.191.071-.191.071-.191.071-.191.071-.191.071-.191.071-.191.071-.191.071-.191.071-.191.071-.191.071-.191.071-.191.071-.191.071-.191.071-.191.071-.191.071-.191.071-.191.071-.191.071-.191.071-.191.071-.191.071-.191.071-.191.071-.191.071-.191.071-.191.071-.191.071-.191.071-.191.071-.191.071-.191.071-.191.071-.191.071-.191.071-.191.071-.191.071-.191.071-.191.071-.191.071-.191.071-.191.071-.191.071-.191.071-.191.071-.191.071-.191.071-.191.071-.191.071-.191.071-.191.071-.191.071-.191.071-.191.071-.191.071-.191.071-.191.071-.191.071-.191.071-.191.071-.191.071-.191.071-.191.071-.191.071-.191.071-.191.071-.191.071-.191.071-.191.071-.191.071-.191.071-.191.071-.191.071-.191.071-.191.071-.191.077-.205.071-.191.071-.191.06.022.06.023.059.023.059.023.059.024.059.024.059.024.059.024.059.024.059.025.059.025.059.025.059.025.059.025.059.025.059.025.059.025.059.025.059.026.059.026.059.026.058.026.058.026.058.027.058.027.058.027.058.028.058.028.058.028.058.028.058.028.058.029.058.029.057.029.057.029.057.029.057.029.057.029.057.029.057.029.057.03.057.03.057.03.057.03.056.03.056.031.056.031.056.031.056.032.056.032.056.032.056.032.056.032.056.032.055.033.055.033.055.033.055.033.055.033.054.033.054.034.054.034.054.034.054.034.054.034.054.034.054.035.054.035.053.035.053.035.053.035.053.035.053.035.053.035.053.036.053.036.053.036.052.036.052.036.052.036.052.037.052.037.052.037.052.037.052.037.052.037.051.037.051.038.051.038.051.038.051.038.051.038.051.038.051.039.051.039.051.039.051.04.051.04.05.04.05.04-.127.159-.127.159-.127.159-.127.159-.127.159-.127.159-.127.159-.127.159-.127.159-.127.159-.127.159-.127.159-.127.159-.126.162-.127.159-.127.159-.127.159-.127.159-.127.159-.127.16-.127.159-.127.159-.127.159-.127.159-.127.159-.127.159-.127.159-.127.159-.127.159-.127.159-.127.159-.127.159-.127.159-.127.159-.127.159-.127.159-.127.159-.127.159-.127.159-.127.159-.127.159-.127.159-.127.159-.127.159-.127.159-.127.159-.127.159-.127.159-.127.159-.127.159-.127.159-.126.166-.127.159-.127.159-.127.159-.127.159-.127.159-.127.16-.127.159-.127.159-.127.159-.127.159-.127.159-.127.159-.127.159-.127.159-.127.159-.127.159-.127.159-.127.159-.127.159-.127.159-.127.159-.127.159-.127.159-.127.159-.127.159-.127.159-.127.159-.127.159-.126.164-.127.159-.127.159-.127.159-.127.159-.127.159-.127.159-.127.159-.127.159-.127.159-.127.159-.127.159-.127.159-.127.159-.127.159-.127.159-.127.159-.127.159-.127.159z" opacity=".6"/><path fill="#ff6800" d="m31.988 31.892-.174-.208-.174-.208-.174-.208-.174-.208-.174-.208-.174-.208-.174-.208-.174-.208-.174-.208-.174-.208-.174-.208-.174-.208-.174-.208-.174-.208-.174-.208-.174-.208-.174-.208-.174-.208-.174-.208-.174-.208-.174-.208-.174-.208-.174-.208-.174-.208-.174-.208-.174-.208-.174-.208-.174-.208-.174-.208-.174-.208-.174-.208-.174-.208-.174-.208-.174-.208-.174-.208-.174-.208-.174-.208-.174-.208-.174-.208-.174-.208-.174-.208-.174-.208-.174-.208-.174-.208-.174-.208-.174-.208-.174-.208-.174-.208-.174-.208-.174-.208-.174-.208-.174-.208-.174-.208-.174-.208-.174-.208-.174-.208-.174-.208-.174-.208-.174-.208-.174-.208-.174-.208-.174-.208-.174-.208-.174-.208-.174-.208-.174-.208-.174-.208-.174-.208-.174-.208-.174-.208-.174-.208-.174-.208-.174-.208-.174-.208-.174-.208-.174-.208-.174-.208-.174-.208-.174-.208-.174-.208-.174-.208-.174-.208-.174-.208-.174-.208-.174-.208-.174-.208-.174-.208-.174-.208-.174-.208-.174-.208-.174-.208-.174-.208-.174-.208-.174-.202-.174-.208-.174-.208-.174-.208-.174-.208-.174-.208-.174-.208.099-.082.099-.082.099-.081.1-.081.1-.08.101-.08.101-.079.101-.079.102-.078.102-.077.102-.077.102-.076.103-.076.103-.075.103-.075.104-.074.104-.074.104-.073.105-.073.105-.072.105-.072.106-.071.106-.071.106-.07.107-.07.107-.07.107-.069.108-.069.108-.068.108-.068.109-.067.11-.067.11-.066.11-.066.11-.065.111-.065.111-.064.111-.064.112-.063.112-.063.112-.062.113-.061.113-.061.113-.06.113-.06.114-.059.114-.059.114-.058.114-.058.115-.057.115-.057.115-.056.116-.056.116-.055.116-.054.116-.054.117-.053.117-.052.117-.052.117-.051.117-.051.117-.051.118-.05.118-.05.118-.049.118-.049.118-.048.119-.047.119-.046.119-.046.119-.045.12-.045.12-.044.12-.044.12-.043.12-.043.121-.042.121-.042.121-.041.121-.041.121-.04.122-.039.122-.038.122-.038.122-.037.122-.037.122-.036.123-.036.123-.035.123-.035.123-.034.123-.034.123-.033.124-.033.124-.032.124-.031.124-.03.124-.03.124-.029.124-.029.06.265.06.265.06.265.06.265.06.265.06.265.06.265.06.265.06.265.06.265.06.265.06.265.06.265.06.265.06.265.06.265.06.265.06.265.06.265.06.265.06.265.06.265.06.265.06.265.06.265.06.265.06.265.06.265.06.265.06.265.06.265.06.265.06.265.057.272.06.265.06.265.06.265.06.265.06.265.06.265.06.265.06.265.06.265.06.265.06.265.06.265.06.265.06.265.06.265.06.265.06.265.06.265.06.265.06.265.06.265.06.265.06.265.06.265.06.265.06.265.06.265.06.265.06.265.06.265.06.265.06.265.06.265.06.265.06.265.06.265.06.265.06.265.06.265.06.265.06.265.06.265.06.265.06.265.06.265.06.265.06.265.06.265.06.265.06.265.06.265.06.265.06.265.06.265.06.265.06.265.06.265.06.265.06.265.06.265.06.265.06.265.06.265.06.265.06.265z" opacity=".6"/><path fill="#ffc400" d="m31.988 31.892-.234.043-.234.043-.234.043-.234.043-.234.043-.234.043-.234.043-.234.043-.234.043-.232.042-.234.043-.234.043-.234.043-.234.043-.234.043-.234.043-.234.043-.234.043-.234.043-.234.043-.234.043-.231.042-.234.043-.234.043-.234.043-.233.043-.234.043-.234.043-.234.043-.234.043-.234.043-.234.043-.234.043-.234.043-.234.043-.234.043-.234.043-.234.043-.234.043-.234.043-.234.043-.234.043-.234.043-.234.043-.234.043-.234.043-.234.043-.234.043-.234.043-.228.041-.234.043-.234.043-.234.043-.234.043-.234.043-.234.043-.234.043-.234.043-.234.043-.234.043-.234.043-.234.043-.234.043-.234.043-.234.043-.234.043-.234.043-.234.043-.234.043-.234.043-.234.043-.234.043-.234.043-.234.043-.234.043-.234.043-.234.043-.234.043-.234.043-.234.043-.234.043-.234.043-.234.043-.234.043-.234.043-.225.04-.234.043-.234.043-.234.043-.233.043-.234.043-.234.043-.234.043-.234.043-.234.043-.234.043-.234.043-.234.043-.234.043-.234.043-.026-.147-.025-.147-.025-.147-.024-.147-.022-.147-.019-.148-.021-.148-.019-.148-.019-.148-.018-.148-.017-.148-.016-.148-.015-.148-.014-.148-.013-.148-.012-.149-.011-.149-.011-.149-.009-.149-.009-.149-.007-.149-.006-.149-.005-.149-.004-.149-.004-.149-.003-.149-.002-.149-.001-.149v-.149l.001-.149.002-.149.003-.149.004-.149.004-.149.005-.149.006-.149.007-.149.009-.149.009-.149.01-.149.011-.149.012-.149.013-.148.014-.148.015-.148.016-.148.017-.148.018-.148.018-.148.019-.148.021-.148.021-.147.022-.147.024-.147.024-.147.025-.147.026-.147.027-.147.028-.146.029-.146.029-.146.03-.146.032-.146.033-.145.034-.145.035-.145.035-.145.036-.145.037-.144.038-.144.039-.144.04-.144.041-.143.042-.143.043-.143.043-.143.044-.142.045-.142.046-.142.047-.141.048-.141.049-.141.05-.141.051-.141.051-.14.052-.14.053-.14.054-.139.055-.139.056-.139.057-.138.058-.138.059-.138.059-.137.06-.137.061-.137.062-.136.063-.136.064-.135.065-.135.214.103.214.103.214.103.214.103.214.103.214.103.214.103.214.103.214.103.214.103.214.103.214.103.214.103.214.103.214.103.214.103.214.103.214.103.214.103.214.103.214.103.214.103.214.103.214.103.214.103.214.103.214.103.214.103.214.103.214.103.214.103.214.103.214.103.214.103.214.103.214.103.214.103.214.103.214.103.214.103.214.103.214.103.214.103.214.103.214.103.214.103.214.103.214.103.214.103.214.103.214.103.214.103.214.103.214.103.214.103.214.103.214.103.214.103.214.103.214.103.214.103.214.103.214.103.214.103.214.103.214.103.214.103.214.103.214.103.214.103.214.103.214.103.214.103.214.103.214.103.214.103.214.103.214.103.214.103.214.103.214.103.214.103.214.103.214.103.214.103.214.103.214.103.214.103.214.103.214.103.214.103.214.103.214.103.214.103.214.103.214.103.214.103.214.103.214.103z" opacity=".6"/><path fill="#29ffce" d="m31.988 31.892-.112.077-.112.077-.112.077-.112.077-.112.077-.112.077-.112.077-.112.075-.112.077-.112.077-.112.077-.112.077-.112.077-.112.077-.112.077-.112.077-.112.077-.112.077-.112.077-.112.077-.112.077-.112.077-.112.077-.112.077-.112.077-.112.077-.112.077-.112.077-.112.077-.112.077-.112.077-.112.077-.112.077-.112.077-.112.077-.112.077-.112.077-.112.077-.112.077-.112.077-.112.077-.112.077-.112.077-.112.077-.112.077-.112.077-.112.077-.112.077-.112.077-.112.077-.112.077-.112.077-.112.077-.112.077-.116.069-.112.077-.112.077-.112.077-.112.077-.112.077-.112.077-.112.077-.112.077-.112.077-.112.077-.112.077-.112.077-.112.077-.112.077-.112.077-.112.077-.112.077-.112.077-.112.077-.112.077-.112.077-.112.077-.112.077-.112.077-.112.077-.112.077-.112.077-.112.077-.112.077-.112.077-.112.077-.112.077-.112.077-.112.077-.112.077-.112.077-.112.077-.112.077-.112.077-.112.077-.112.077-.112.077-.112.077-.116.069-.112.077-.012-.018-.012-.018-.012-.018-.012-.018-.012-.018-.012-.018-.012-.018-.012-.018-.012-.018-.012-.018-.012-.018-.012-.018-.012-.018-.012-.018-.011-.018-.011-.018-.011-.018-.011-.018-.011-.018-.011-.018-.011-.018-.011-.018-.011-.018-.011-.018-.011-.018-.011-.018-.011-.018-.011-.018-.011-.018-.011-.018-.011-.018-.011-.018-.011-.018-.011-.018-.011-.018-.011-.018-.011-.018-.011-.018-.011-.018-.011-.018-.011-.018-.011-.018-.011-.018-.011-.018-.011-.018-.011-.018-.011-.018-.011-.018-.011-.018-.011-.018-.011-.018-.011-.018-.011-.018-.011-.018-.011-.018-.011-.018-.011-.018-.011-.018-.011-.018-.011-.018-.011-.018-.011-.018-.011-.018-.011-.018-.011-.018-.011-.018-.011-.018-.01-.018-.01-.018-.01-.018-.01-.019-.01-.019-.01-.019-.01-.019-.01-.019-.01-.019-.01-.019-.01-.019-.01-.019-.01-.019-.01-.019-.01-.019-.01-.019-.009-.019-.009-.019-.009-.019-.009-.019-.009-.019-.009-.019-.009-.019-.009-.019-.009-.019-.009-.019-.009-.019-.009-.019-.009-.019-.009-.019-.009-.021-.009-.019-.009-.019.122-.059.122-.059.122-.059.122-.059.122-.059.122-.059.122-.059.122-.059.122-.059.122-.059.122-.059.122-.059.122-.059.122-.059.122-.059.122-.059.122-.059.122-.059.122-.059.122-.059.122-.059.122-.059.122-.059.122-.059.122-.059.122-.059.122-.059.122-.059.122-.059.122-.059.122-.059.122-.059.122-.059.122-.059.122-.059.122-.059.122-.059.122-.059.122-.059.122-.059.122-.059.122-.059.122-.059.122-.059.122-.059.122-.059.122-.059.122-.059.122-.059.122-.059.122-.059.122-.059.122-.059.122-.059.122-.059.122-.059.122-.059.122-.059.122-.059.122-.059.122-.059.122-.059.122-.059.122-.059.122-.059.122-.059.122-.059.122-.059.122-.059.122-.059.122-.059.122-.059.122-.059.122-.059.122-.059.122-.059.122-.059.122-.059.122-.059.122-.059.122-.059.122-.059.122-.059.122-.059.122-.059.122-.059.122-.059.122-.059.122-.059.122-.059.122-.059.122-.059.122-.059.122-.059.122-.059.122-.059.122-.059.122-.059.122-.059z" opacity=".6"/><path fill="#7dff7a" d="m31.988 31.892.029.168.029.168.029.168.029.168.029.168.029.168.029.168.029.168.029.168.029.168.029.168.029.168.029.168.029.168.029.168.029.168.029.168.029.168.029.168.029.168.029.168.029.168.029.168.029.168.029.168.029.168.029.168.029.168.029.168.029.168.029.168.029.168.029.168.029.168.029.168.029.168.029.168.029.168.029.168.029.168.029.168.029.168.029.168.029.168.029.168.029.168.029.168.029.168.029.168.029.168.029.168.029.168.029.168.029.168.029.168.029.168.029.168.029.168.029.168.029.168.029.168.029.168.029.168.029.168.029.168.029.168.029.168.029.168.029.168.029.168.029.168.029.168.029.168.029.168.029.168.029.168.029.168.029.168.029.168.029.168.029.168.029.168.029.168.029.168.029.168.029.168.029.168.029.168.029.168.029.168.029.168.029.168.029.168.029.168.029.168.029.168.029.168.029.168.029.168.029.168-.066.011-.066.011-.066.011-.066.011-.066.01-.066.009-.066.009-.066.009-.066.009-.066.009-.066.009-.066.008-.066.008-.066.007-.066.007-.066.007-.067.007-.067.006-.067.006-.067.006-.067.006-.067.005-.067.005-.067.005-.067.005-.067.004-.067.004-.067.004-.067.004-.067.004-.067.004-.067.003-.067.003-.067.003-.067.002-.067.002-.067.002-.067.002-.067.001-.067.001-.067.001-.067.001h-.133l-.067-.001-.067-.001-.067-.001-.067-.001-.067-.002-.067-.002-.067-.002-.076-.024-.067-.003-.067-.003-.067-.003-.067-.004-.067-.004-.067-.004-.067-.004-.067-.004-.067-.004-.067-.005-.067-.005-.067-.005-.067-.005-.067-.006-.067-.006-.067-.006-.067-.006-.067-.007-.066-.007-.065-.007-.066-.007-.066-.008-.066-.009-.066-.009-.066-.009-.066-.009-.066-.009-.066-.009-.066-.01-.066-.01-.066-.011-.066-.011-.066-.011-.066-.011-.066-.011-.066-.011-.066-.012-.066-.012-.066-.013-.066-.013-.066-.013-.066-.013-.066-.013-.065-.013-.065-.014-.065-.014-.065-.015-.065-.015.038-.166.038-.166.038-.166.038-.166.038-.166.038-.166.038-.166.038-.166.038-.166.038-.166.038-.166.038-.166.038-.166.038-.166.038-.166.038-.166.038-.166.038-.166.038-.166.038-.166.038-.166.038-.166.038-.166.038-.166.038-.166.038-.166.038-.166.038-.166.038-.166.038-.166.038-.166.038-.166.038-.166.038-.166.038-.166.038-.166.038-.166.038-.166.038-.166.038-.166.038-.166.038-.166.038-.166.038-.166.038-.166.038-.166.038-.166.038-.166.038-.166.038-.166.038-.166.038-.166.038-.166.038-.166.038-.166.038-.166.038-.166.038-.166.038-.166.038-.166.038-.166.038-.166.038-.166.038-.166.038-.166.038-.166.038-.166.038-.166.038-.166.038-.166.038-.166.038-.166.038-.166.038-.166.038-.166.038-.166.038-.166.038-.166.038-.166.038-.166.038-.166.038-.166.038-.166.038-.166.038-.166.038-.166.038-.166.038-.166.038-.166.038-.166.038-.166.038-.166.038-.166.038-.166.038-.166.038-.166.038-.166.038-.166.038-.166z" opacity=".6"/><path fill="#ff6800" d="m31.988 31.892.214.167.214.167.214.167.214.167.214.167.214.167.214.167.214.167.214.167.214.167.214.167.214.167.214.167.214.167.216.165.214.167.214.167.214.167.214.167.214.167.214.167.214.167.214.167.214.167.214.167.214.167.214.167.214.167.214.167.214.167.214.167.214.167.214.167.214.167.214.167.214.167.214.167.214.167.214.167.214.167.214.167.214.167.214.167.214.167.214.167.214.167.214.167.214.167.214.167.214.167.214.167.214.167.214.167.214.167.214.167.214.167.214.167.214.167.214.167.214.167.214.167.214.167.214.167.214.167.214.167.214.167.214.167.214.167.214.167.214.167.214.167.214.167.214.167.214.167.214.167.214.167.214.167.214.167.214.167.214.167.214.167.214.167.214.167.214.167.214.167.214.167.214.167.214.167.214.167.214.167.214.167.214.167.214.167.214.167.214.167.214.167.214.167.214.167.214.167.214.167-.04.051-.04.051-.04.05-.04.05-.04.05-.04.05-.04.05-.04.05-.041.05-.041.05-.041.05-.041.05-.041.05-.041.049-.041.049-.041.049-.042.049-.042.049-.042.049-.042.049-.042.049-.042.049-.042.049-.042.048-.042.048-.043.048-.043.048-.043.048-.043.048-.043.048-.043.048-.043.048-.043.048-.043.047-.043.047-.043.047-.043.047-.043.047-.043.046-.044.046-.044.046-.044.046-.044.046-.044.046-.044.046-.044.046-.044.046-.044.046-.045.045-.045.045-.045.045-.045.045-.045.045-.045.045-.045.045-.045.045-.045.045-.046.044-.046.044-.046.044-.046.044-.046.044-.046.044-.046.044-.046.044-.046.044-.046.043-.047.043-.047.043-.047.043-.047.043-.047.043-.034.033-.048.043-.048.043-.048.043-.048.043-.048.043-.048.043-.048.042-.048.042-.048.042-.049.042-.049.042-.049.042-.049.042-.049.042-.049.042-.049.041-.049.041-.049.041-.049.041-.05.041-.05.041-.05.041-.05.041-.05.041-.05.04-.05.04-.05.04-.17-.212-.169-.212-.17-.212-.17-.212-.17-.212-.17-.212-.17-.212-.17-.212-.17-.212-.17-.212-.17-.212-.17-.212-.17-.212-.17-.212-.17-.212-.17-.212-.17-.212-.17-.212-.17-.212-.17-.212-.17-.212-.17-.212-.17-.212-.17-.212-.17-.212-.165-.207-.17-.212-.17-.212-.17-.212-.17-.212-.17-.212-.17-.212-.17-.212-.17-.212-.17-.212-.17-.212-.17-.212-.17-.212-.17-.212-.17-.212-.17-.212-.17-.212-.17-.212-.17-.212-.17-.212-.17-.212-.17-.212-.17-.212-.17-.212-.17-.212-.17-.212-.17-.212-.17-.212-.17-.212-.17-.212-.17-.212-.17-.212-.17-.212-.17-.212-.17-.212-.17-.212-.17-.212-.17-.212-.17-.212-.17-.212-.17-.212-.17-.212-.17-.212-.17-.212-.17-.212-.17-.212-.17-.212-.17-.212-.17-.212-.17-.212-.17-.212-.17-.212-.17-.212-.17-.212-.17-.212-.17-.212-.17-.212-.17-.212-.17-.212-.17-.212-.17-.212-.17-.212-.17-.212-.17-.212-.17-.212-.17-.212-.17-.212-.17-.212-.17-.212-.17-.212-.17-.212-.17-.212-.17-.212-.17-.212z" opacity=".6"/><path fill="#2c2c2c" d="m38.776 32.099-6.788-.001a.207.207 0 0 1-.064-.403l6.456-2.097a.206.206 0 0 1 .261.133c.228.699.343 1.427.342 2.162a.206.206 0 0 1-.206.206m-5.482-.414h5.272a6.5 6.5 0 0 0-.258-1.629z"/><path fill="#2c2c2c" d="M31.988 32.099a.207.207 0 0 1-.194-.279l7.156-19.065a.205.205 0 0 1 .266-.121 20.5 20.5 0 0 1 5.598 3.175.207.207 0 0 1 .033.29L32.149 32.02a.21.21 0 0 1-.162.078m7.276-19.004L32.64 30.742l11.754-14.738a20.1 20.1 0 0 0-5.13-2.91"/><path fill="#2c2c2c" d="M31.988 32.099a.21.21 0 0 1-.159-.074L14.428 11.182a.205.205 0 0 1 .026-.291A27.4 27.4 0 0 1 25.901 5.22a.207.207 0 0 1 .247.156l6.042 26.471a.21.21 0 0 1-.11.232.2.2 0 0 1-.092.021M14.879 11.076l16.715 20.022L25.791 5.67a27 27 0 0 0-10.912 5.407"/><path fill="#2c2c2c" d="M8.612 36.34a.205.205 0 0 1-.203-.17 24 24 0 0 1 1.988-14.678.207.207 0 0 1 .276-.097l21.404 10.307a.206.206 0 0 1-.053.39L8.649 36.334l-.037.004m2.068-14.48a23.6 23.6 0 0 0-1.901 14.034l22.545-4.091z"/><path fill="#2c2c2c" d="M20.828 39.83a.21.21 0 0 1-.171-.089 14 14 0 0 1-1.089-1.869.206.206 0 0 1 .097-.276l12.231-5.89a.206.206 0 0 1 .207.356l-11.156 7.731a.2.2 0 0 1-.118.036m-.795-1.952a14 14 0 0 0 .849 1.456l8.827-6.115z"/><path fill="#2c2c2c" d="M31.995 49.066c-1.29 0-2.583-.143-3.83-.428a.207.207 0 0 1-.155-.248l3.776-16.544c.022-.096.112-.177.207-.161a.205.205 0 0 1 .198.172l2.842 16.73a.207.207 0 0 1-.17.238 17 17 0 0 1-2.869.24m-3.536-.787c2 .43 4.11.49 6.132.172l-2.634-15.499z"/><path fill="#2c2c2c" d="M48.916 53.326a.2.2 0 0 1-.162-.078L31.826 32.02a.206.206 0 0 1 .288-.292L53.53 48.417a.207.207 0 0 1 .036.29 27.4 27.4 0 0 1-4.522 4.573.2.2 0 0 1-.128.044M33.239 33.129l15.71 19.7a27 27 0 0 0 4.165-4.212z"/></svg>