<!DOCTYPE svg PUBLIC "-//W3C//DTD SVG 1.1//EN" "http://www.w3.org/Graphics/SVG/1.1/DTD/svg11.dtd">
<!-- Uploaded to: SVG Repo, www.svgrepo.com, Transformed by: SVG Repo Mixer Tools -->
<svg xmlns="http://www.w3.org/2000/svg" aria-label="GitLab" role="img" viewBox="0 0 512 512" width="64px" height="64px" fill="#000000">
<g id="SVGRepo_bgCarrier" stroke-width="0"/>
<g id="SVGRepo_tracerCarrier" stroke-linecap="round" stroke-linejoin="round"/>
<g id="SVGRepo_iconCarrier">
<rect width="512" height="512" rx="15%" fill="#30353e"/>
<path fill="#e24329" d="M84 215l43-133c2-7 12-7 14 0l115 353L371 82c2-7 12-7 14 0l43 133"/>
<path fill="#fc6d26" d="M256 435L84 215h100.4zm71.7-220H428L256 435l71.6-220z"/>
<path fill="#fca326" d="M84 215l-22 67c-2 6 0 13 6 16l188 137zm344 0l22 67c2 6 0 13-6 16L256 435z"/>
</g>
</svg>