<svg xmlns="http://www.w3.org/2000/svg" viewBox="0 0 64 64" width="64" height="64"><path fill="#F34F29" d="M62.368 29.189 34.81 1.632c-1.586 -1.587 -4.16 -1.587 -5.748 0L23.34 7.355l7.259 7.259c1.688 -0.57 3.622 -0.188 4.966 1.157 1.351 1.353 1.73 3.304 1.147 4.997l6.996 6.997c1.692 -0.584 3.646 -0.206 4.997 1.147 1.89 1.889 1.89 4.95 0 6.84a4.837 4.837 0 0 1 -6.841 0 4.84 4.84 0 0 1 -1.052 -5.261L34.287 23.966l-0.001 17.171a4.85 4.85 0 0 1 1.28 0.914c1.889 1.889 1.889 4.949 0 6.841 -1.889 1.889 -4.952 1.889 -6.84 0 -1.889 -1.892 -1.889 -4.952 0 -6.841a4.85 4.85 0 0 1 1.583 -1.055V23.666a4.8 4.8 0 0 1 -1.583 -1.056c-1.431 -1.43 -1.776 -3.53 -1.042 -5.288L20.528 10.166 1.632 29.061a4.066 4.066 0 0 0 0 5.75l27.558 27.557c1.587 1.587 4.16 1.587 5.75 0l27.429 -27.429a4.067 4.067 0 0 0 -0.001 -5.75"/></svg>