<svg xmlns="http://www.w3.org/2000/svg" viewBox="0 0 64 64" width="64" height="64"><path fill="#659AD3" d="M57.7 15.35 33.55 1.45c-.4-.25-.95-.35-1.55-.35s-1.15.15-1.55.35l-24 13.95C5.6 15.9 5 17.15 5 18.1v27.85c0 .55.1 1.2.5 1.75l53.4-31c-.3-.6-.75-1.05-1.2-1.35"/><path fill="#03599C" d="M5.35 47.65c.25.4.6.75.95.95l24.1 13.95c.4.25.95.35 1.55.35s1.15-.15 1.55-.35l24-13.95c.85-.5 1.45-1.75 1.45-2.7V18.05c0-.45-.05-.95-.3-1.4z"/><path fill="#fff" d="M42.65 38.05c-2.1 3.7-6.1 6.2-10.65 6.2-6.75 0-12.25-5.5-12.25-12.25S25.25 19.75 32 19.75c4.55 0 8.55 2.5 10.65 6.25l6.5-3.75c-3.4-5.95-9.8-10-17.15-10-10.9 0-19.75 8.85-19.75 19.75S21.1 51.75 32 51.75c7.3 0 13.7-4 17.1-9.9z"/></svg>